<?xml version="1.0" standalone="no"?>
<!DOCTYPE svg PUBLIC "-//W3C//DTD SVG 20010904//EN"
 "http://www.w3.org/TR/2001/REC-SVG-20010904/DTD/svg10.dtd">
<svg version="1.0" xmlns="http://www.w3.org/2000/svg"
 width="1000.000000pt" height="1000.000000pt" viewBox="0 0 1000.000000 1000.000000"
 preserveAspectRatio="xMidYMid meet">
<metadata>
Created by potrace 1.16, written by Peter Selinger 2001-2019
</metadata>
<g transform="translate(0.000000,1000.000000) scale(0.100000,-0.100000)"
fill="#000000" stroke="none">
<path d="M3473 8773 l-1971 -3 -24 -29 -25 -29 -6 -713 c-4 -393 -7 -1365 -7
-2161 l0 -1448 513 0 c283 0 1007 3 1610 7 l1096 6 43 66 c37 56 49 66 76 69
18 2 32 -1 32 -7 0 -6 12 -11 28 -11 21 0 24 -2 12 -10 -8 -5 -31 -10 -51 -10
-33 0 -40 -5 -70 -52 l-34 -53 52 0 c33 0 48 3 42 10 -5 5 -9 26 -9 47 l0 38
53 0 c28 -1 69 -7 91 -15 45 -16 61 -12 63 16 2 16 -2 19 -18 14 -20 -7 -49 9
-49 26 0 5 23 9 50 9 l50 0 0 -50 0 -50 39 0 c34 0 40 4 45 26 l7 27 86 -6
c107 -8 138 -30 97 -71 -19 -20 -154 -23 -154 -4 0 9 -3 9 -12 0 -17 -17 -79
-15 -105 3 -18 13 -26 13 -43 3 -11 -7 -20 -16 -20 -20 0 -4 93 -5 208 -4 114
2 917 4 1786 5 l1578 1 -7 2153 c-8 2299 -5 2190 -54 2217 -13 7 -506 9 -1523
8 -827 -2 -2390 -4 -3475 -5z m-1287 -287 c-6 -18 -17 -41 -25 -49 -7 -9 -10
-21 -6 -27 3 -5 2 -10 -3 -10 -5 0 -12 -8 -15 -17 -32 -104 -64 -178 -77 -178
-8 0 -16 -10 -18 -22 -2 -13 -8 -23 -13 -23 -5 0 -9 -9 -9 -20 0 -11 -4 -20
-10 -20 -5 0 -10 -6 -10 -13 0 -7 -9 -29 -20 -50 -11 -20 -20 -44 -20 -52 0
-9 -11 -37 -24 -63 -29 -58 -40 -102 -26 -102 5 0 10 12 10 26 0 14 4 23 8 20
8 -5 12 3 59 123 16 41 35 76 41 77 7 1 8 0 3 -2 -6 -3 -8 -11 -5 -18 3 -7 -9
-53 -26 -102 -124 -356 -160 -544 -160 -844 1 -631 242 -1187 689 -1584 56
-50 211 -166 222 -166 4 0 14 -6 21 -13 7 -7 63 -40 125 -73 61 -32 110 -60
109 -62 -5 -4 -157 68 -188 90 -15 11 -33 15 -44 11 -11 -4 -15 -3 -10 5 8 14
-79 66 -95 56 -9 -5 -10 -2 -6 9 4 11 1 17 -9 17 -17 0 -94 47 -94 57 0 4 5 2
12 -5 7 -7 16 -12 22 -12 5 0 1 6 -9 14 -11 8 -24 12 -30 10 -6 -3 -26 12 -45
33 -19 20 -28 33 -20 28 13 -8 13 -7 1 8 -16 20 -36 23 -25 5 5 -9 3 -9 -9 1
-9 7 -15 17 -12 21 3 4 -3 16 -13 27 -9 10 -14 14 -9 9 13 -18 7 -29 -8 -16
-8 7 -15 22 -16 34 0 11 -3 15 -6 9 -8 -21 -45 5 -38 26 3 11 -2 24 -11 32
-16 13 -16 12 -4 -11 12 -24 11 -23 -20 5 -17 17 -38 43 -46 58 -8 15 -20 25
-25 21 -7 -4 -7 1 0 15 10 18 8 21 -14 27 -15 4 -24 12 -22 18 3 7 -3 18 -14
24 -11 7 -16 18 -13 27 4 10 0 15 -11 15 -11 0 -15 5 -11 16 5 12 1 14 -17 9
-15 -4 -18 -3 -8 3 10 8 11 14 1 32 -10 18 -14 20 -21 9 -9 -15 -13 2 -11 46
0 11 -2 14 -4 8 -3 -7 -12 -13 -20 -13 -11 0 -11 6 -3 27 6 15 7 24 3 21 -9
-10 -47 39 -39 52 3 5 1 18 -5 27 -9 15 -10 14 -4 -6 4 -16 3 -21 -5 -17 -6 4
-16 26 -23 49 -7 23 -20 49 -30 58 -10 9 -18 30 -18 48 0 17 -4 31 -8 31 -9 0
-36 79 -47 132 -3 19 -10 26 -20 22 -10 -4 -16 3 -20 23 -4 15 -10 37 -15 48
-5 11 -12 31 -16 45 l-7 25 19 -20 c11 -12 16 -16 11 -9 -4 6 -14 40 -22 75
-13 59 -14 60 -9 14 3 -27 4 -48 1 -45 -9 9 -24 110 -16 104 5 -3 9 5 9 18 0
18 -2 20 -9 9 -7 -11 -11 -5 -16 22 -4 19 -4 40 0 46 3 6 2 11 -2 11 -16 0
-33 162 -33 303 0 279 72 654 161 841 11 22 19 45 19 52 0 16 83 182 122 246
16 26 43 84 59 130 17 46 35 95 41 111 5 15 16 27 23 27 10 0 10 -7 1 -34z
m162 7 c-7 -16 -15 -32 -20 -37 -4 -6 -8 -21 -8 -34 0 -13 -4 -21 -9 -18 -11
7 -35 -69 -26 -84 5 -8 4 -11 -3 -6 -7 4 -13 -7 -18 -31 -4 -21 -10 -42 -14
-48 -4 -5 -10 -26 -13 -45 -2 -19 -12 -60 -20 -91 -9 -30 -18 -78 -22 -105 -3
-27 -12 -85 -19 -129 -27 -153 -27 -484 -1 -655 3 -14 11 -65 18 -115 14 -89
40 -190 79 -315 19 -60 26 -80 62 -165 22 -53 115 -238 142 -285 94 -161 215
-312 373 -470 70 -69 110 -114 91 -100 -37 26 -246 231 -296 290 -243 287
-421 686 -496 1105 -29 166 -36 503 -14 688 19 157 82 431 127 547 15 41 33
87 38 103 8 19 17 27 36 27 23 0 24 -2 13 -27z m2501 -498 c71 -9 174 -70 240
-141 53 -56 131 -176 131 -200 0 -5 -13 14 -28 42 -53 96 -129 181 -184 206
-16 7 -28 17 -28 21 0 5 -4 6 -9 3 -5 -3 -29 0 -54 8 -29 9 -58 11 -79 6 -18
-4 -28 -8 -23 -9 12 -2 -16 -21 -30 -21 -5 0 -3 5 5 11 12 8 9 9 -10 4 -58
-15 -61 -17 -56 -31 3 -8 2 -13 -3 -10 -7 5 -40 -26 -128 -119 -7 -7 -9 -15
-6 -19 4 -3 1 -6 -5 -6 -14 0 -64 -95 -55 -104 3 -3 1 -12 -6 -19 -6 -8 -8
-23 -4 -32 4 -12 3 -16 -4 -12 -7 5 -9 0 -6 -14 5 -19 7 -19 15 -5 5 10 7 23
4 31 -3 8 -1 15 3 17 5 2 12 14 16 27 5 18 4 22 -5 16 -9 -5 -11 -4 -6 4 4 6
12 8 18 5 6 -4 8 1 4 12 -3 11 -2 25 3 32 5 8 8 -7 7 -36 -1 -27 -7 -56 -15
-65 -7 -9 -11 -24 -7 -32 4 -10 2 -14 -5 -9 -8 4 -9 -1 -4 -16 4 -14 3 -20 -2
-17 -6 4 -11 -6 -11 -21 -4 -105 -7 -131 -13 -121 -12 20 -21 -212 -12 -284 7
-46 6 -64 0 -58 -19 19 -13 451 6 451 10 0 8 42 -3 60 -9 13 -10 13 -11 0 -1
-8 -3 -31 -6 -50 -3 -19 -5 -60 -5 -90 0 -46 -1 -50 -8 -25 l-8 30 -2 -35 c-1
-19 -4 -74 -6 -121 -3 -48 -1 -126 5 -175 6 -49 15 -129 21 -179 6 -49 15
-104 21 -122 5 -17 12 -44 15 -60 3 -15 9 -44 14 -63 14 -49 12 -60 -5 -25
l-14 30 6 -30 c8 -44 60 -208 93 -295 15 -41 31 -86 35 -100 4 -14 15 -38 23
-55 9 -16 15 -34 14 -39 -2 -4 4 -19 13 -32 8 -13 15 -30 15 -39 0 -9 4 -14 9
-11 4 3 16 -19 26 -49 9 -30 21 -57 25 -60 14 -8 72 -117 66 -123 -3 -3 -6 0
-6 7 0 7 -4 9 -10 6 -6 -3 -7 1 -4 9 3 9 1 16 -5 16 -7 0 -28 35 -48 78 -21
42 -40 79 -43 82 -11 10 -94 185 -92 194 2 5 -1 12 -6 15 -5 3 -25 42 -43 86
-36 85 -36 85 -38 113 -1 15 -3 15 -12 2 -9 -13 -10 -12 -5 3 3 10 -4 38 -15
62 -11 24 -17 49 -13 56 4 7 3 9 -4 5 -6 -4 -13 7 -17 26 -4 18 -15 62 -25 98
-11 36 -30 128 -44 205 -14 79 -25 123 -25 100 -1 -22 6 -80 14 -130 8 -49 15
-96 15 -104 0 -28 -12 -2 -20 46 l-9 48 4 -50 c3 -27 7 -63 10 -80 3 -16 -2
-8 -10 19 -7 27 -20 90 -27 140 -11 80 -14 86 -19 51 -4 -33 -7 -24 -13 50 -9
90 -2 365 10 420 4 17 3 27 0 23 -14 -12 -37 -223 -36 -338 0 -171 25 -375 76
-615 4 -16 4 -28 1 -25 -17 16 -104 441 -108 530 -2 32 -2 33 -6 6 -7 -45 32
-284 72 -446 26 -104 102 -342 130 -405 9 -22 26 -60 37 -84 16 -36 16 -42 4
-32 -9 8 -16 18 -16 23 0 5 -15 41 -34 81 -18 40 -51 122 -72 184 -21 61 -42
109 -46 106 -5 -2 -6 8 -3 24 5 23 4 25 -5 13 -10 -13 -11 -12 -6 3 7 22 -3
69 -14 62 -17 -10 -83 324 -98 494 -10 114 3 343 24 430 21 89 12 86 -15 -7
-13 -42 -29 -90 -36 -107 -7 -16 -16 -37 -19 -45 -3 -8 -3 3 0 25 3 22 9 44
12 50 4 5 5 18 3 29 -1 11 2 16 9 11 7 -5 9 2 5 22 -5 22 -4 25 5 13 9 -12 10
-10 5 9 -4 13 -3 21 1 18 8 -4 10 29 5 73 -1 13 -2 13 -11 0 -5 -8 -10 -19
-10 -25 0 -5 5 -3 10 5 14 22 12 -3 -3 -39 -7 -17 -16 -29 -19 -26 -3 3 -4 -7
-2 -22 4 -23 3 -24 -4 -8 -8 17 -9 17 -16 -9 -4 -16 -5 -31 -1 -34 3 -3 5 3 5
13 0 10 3 16 6 13 3 -3 -1 -34 -8 -68 -9 -45 -14 -57 -20 -43 -5 11 -6 2 -4
-22 3 -22 1 -94 -3 -160 l-8 -120 -3 100 -3 100 -9 -75 c-4 -41 -6 -129 -4
-195 4 -103 3 -110 -5 -50 -5 39 -10 134 -12 213 -2 100 -7 146 -16 155 -11
10 -12 5 -7 -26 4 -23 4 -37 -2 -33 -12 7 -22 -87 -23 -218 l-2 -101 -9 70
c-11 89 1 280 27 414 5 23 4 23 -4 5 -26 -59 -43 -237 -45 -474 -2 -240 -1
-248 30 -405 32 -159 122 -447 178 -570 29 -63 17 -58 -34 14 -13 19 -26 29
-28 23 -2 -7 6 -24 17 -38 12 -15 19 -30 15 -33 -3 -3 -13 3 -22 14 -10 12
-24 24 -32 27 -9 3 -29 25 -45 49 -17 24 -32 46 -35 49 -22 20 -125 190 -155
255 -110 237 -138 351 -139 560 -1 129 2 160 22 225 41 132 79 198 167 285 49
50 85 95 93 118 8 21 12 41 9 43 -10 10 -134 -94 -180 -151 -26 -33 -64 -92
-83 -132 -58 -121 -67 -167 -69 -375 0 -103 1 -185 4 -182 6 6 32 -126 34
-173 1 -20 4 -28 9 -20 12 19 10 -10 -2 -34 -8 -15 -8 -19 2 -17 8 2 13 -8 14
-27 3 -78 4 -81 14 -65 8 11 9 7 4 -15 -4 -23 -3 -26 5 -15 13 18 15 1 2 -18
-5 -9 -17 11 -34 60 -77 215 -107 415 -89 598 6 58 9 119 6 135 -3 25 -3 26 5
10 5 -11 10 -17 10 -13 1 3 4 14 8 24 4 12 3 15 -5 10 -14 -8 -14 0 -2 29 6
13 9 15 9 5 1 -13 2 -13 11 0 12 19 13 33 1 26 -5 -4 -7 3 -4 14 3 11 9 17 14
14 8 -5 13 10 10 29 -1 5 3 6 8 3 5 -3 12 6 16 21 17 70 129 191 234 253 60
36 71 47 86 88 16 42 77 138 136 215 l21 28 -43 -6 c-193 -26 -320 -78 -451
-182 -168 -133 -282 -336 -334 -595 -23 -114 -15 -413 15 -553 26 -123 52
-217 63 -229 4 -6 8 -19 8 -31 0 -12 4 -25 8 -31 4 -5 14 -27 21 -49 20 -60
163 -357 183 -379 10 -11 18 -25 18 -31 0 -6 9 -18 20 -28 12 -10 18 -22 15
-27 -3 -6 -1 -10 4 -10 6 0 10 -6 9 -12 -2 -7 3 -12 10 -10 8 1 11 -2 7 -9 -4
-6 8 -27 27 -47 57 -62 80 -101 73 -123 -7 -20 -7 -20 -23 3 -9 12 -22 29 -29
36 -7 8 -11 18 -8 23 4 5 0 7 -7 4 -8 -2 -38 31 -75 83 -259 367 -393 735
-413 1132 l-7 145 -1 -151 c-1 -83 -4 -167 -7 -185 -4 -30 -4 -31 5 -9 7 19 8
9 5 -40 -3 -46 -1 -56 4 -35 6 21 9 24 10 10 1 -11 4 -31 7 -45 4 -20 3 -22
-5 -10 -9 12 -11 11 -11 -8 0 -13 3 -21 8 -19 4 3 8 -14 9 -37 1 -22 20 -97
42 -166 43 -133 48 -170 11 -70 -12 33 -24 59 -27 57 -3 -4 20 -67 75 -204 16
-39 18 -54 9 -59 -7 -4 -9 -4 -5 1 4 4 -1 22 -12 40 -11 18 -17 34 -15 37 3 3
-1 11 -10 18 -8 7 -15 18 -15 24 0 6 -7 24 -15 39 -19 37 -69 194 -90 282 -29
125 -37 178 -45 315 l-8 135 4 -155 c2 -98 11 -190 23 -250 10 -52 18 -96 16
-98 -5 -6 -13 26 -37 153 -31 168 -31 433 1 582 35 167 85 290 170 423 137
211 345 351 602 405 88 19 239 22 249 5 5 -9 17 -6 47 13 85 54 165 87 230 97
117 17 207 27 228 24 11 -1 40 -5 64 -9z m3488 -84 c7 -60 -68 -427 -90 -442
-5 -4 -7 -11 -4 -15 3 -5 -3 -26 -13 -47 -10 -21 -22 -51 -25 -68 -10 -43
-157 -359 -198 -424 -6 -11 -43 -69 -80 -130 -38 -60 -73 -111 -78 -113 -5 -2
-9 -8 -9 -14 0 -9 -53 -82 -70 -98 -3 -3 -21 -25 -40 -50 -19 -25 -65 -77
-102 -117 -37 -39 -66 -78 -63 -85 5 -11 -133 -148 -149 -148 -3 0 27 30 67
67 40 37 74 71 75 75 9 20 -15 4 -62 -41 -28 -27 -66 -62 -85 -78 l-34 -30 41
-1 c22 -1 43 2 46 6 2 4 32 6 65 6 34 -1 64 3 67 8 3 5 14 6 24 3 37 -12 75
17 216 169 183 196 381 504 504 783 37 83 46 96 48 73 2 -15 -5 -45 -14 -66
-9 -22 -18 -41 -18 -44 -7 -30 -80 -159 -88 -154 -6 4 -8 -1 -3 -16 5 -15 4
-20 -4 -16 -10 7 -16 -7 -12 -28 1 -5 -2 -12 -6 -15 -20 -13 -90 -151 -78
-151 3 0 12 15 20 33 27 55 48 92 56 97 5 3 40 68 79 145 46 92 70 131 70 113
0 -14 -7 -31 -15 -38 -8 -7 -12 -17 -8 -23 4 -6 1 -7 -7 -2 -9 5 -11 4 -6 -3
4 -6 0 -22 -9 -35 -8 -13 -12 -27 -8 -30 4 -4 17 14 29 40 13 27 23 42 23 35
2 -45 -298 -536 -316 -518 -3 3 11 25 32 50 20 25 35 50 33 57 -2 6 -20 -14
-41 -45 -20 -30 -35 -61 -32 -68 2 -7 -14 -33 -36 -58 -22 -25 -37 -38 -33
-30 4 8 16 25 28 38 17 19 17 22 3 16 -9 -3 -17 -10 -17 -14 0 -4 -18 -28 -40
-53 -22 -25 -40 -48 -40 -52 0 -4 12 8 26 25 15 17 29 28 32 25 9 -9 -60 -75
-71 -68 -6 4 -7 1 -2 -6 8 -14 -73 -104 -86 -95 -4 2 -20 -7 -35 -21 l-27 -25
34 6 c19 4 45 12 59 18 30 14 207 209 263 291 22 33 45 65 49 70 14 17 58 86
58 90 0 3 17 31 37 62 21 32 38 60 38 63 1 18 53 89 60 83 4 -5 5 -3 1 4 -3 7
0 27 8 45 l14 33 1 -38 c1 -21 -9 -57 -20 -80 -71 -139 -258 -400 -379 -530
-40 -42 -67 -77 -61 -77 47 0 355 135 385 169 12 13 22 17 26 11 4 -6 13 -4
26 6 16 13 16 15 1 10 -16 -5 -16 -4 -1 19 9 14 18 25 19 25 2 0 3 -16 3 -36
l0 -35 -131 -63 c-558 -268 -1208 -297 -1832 -83 -327 112 -643 295 -888 513
-39 34 -64 51 -75 47 -12 -5 -14 -2 -8 13 6 15 5 16 -5 7 -18 -18 47 -108 140
-194 41 -38 70 -69 64 -69 -16 0 -274 271 -314 329 -19 28 -39 49 -46 46 -7
-2 -10 2 -7 9 3 8 -4 23 -16 34 -29 27 -88 172 -111 272 -37 167 -15 280 54
280 67 0 58 -164 -17 -308 -13 -24 -14 -37 -6 -52 6 -11 14 -20 19 -20 4 0 41
-44 82 -97 408 -537 1121 -898 1833 -929 l141 -6 136 138 c162 166 230 249
343 419 130 195 281 517 327 693 7 28 17 48 22 45 6 -3 7 -1 4 4 -4 6 2 28 13
49 10 22 27 74 37 117 10 42 21 77 24 77 4 0 5 8 3 18 -2 9 3 37 11 62 l15 45
-6 -50 c-5 -49 -23 -137 -46 -223 -17 -67 -1 -61 18 7 9 34 19 60 21 57 12
-12 -76 -287 -146 -455 -44 -105 -158 -322 -215 -410 -55 -83 -166 -231 -208
-276 -15 -16 -28 -34 -28 -39 0 -10 61 57 133 147 136 168 304 460 363 628 14
41 41 119 60 174 19 55 51 159 69 230 30 113 36 120 19 25 l-4 -25 9 25 c16
47 39 135 62 237 13 57 25 101 27 98 3 -2 7 -22 9 -44z m-4527 -53 c-145 -55
-314 -168 -384 -256 -15 -19 -16 -26 -6 -35 10 -10 12 -8 7 5 -4 10 -2 17 3
15 4 -1 29 15 54 36 25 21 43 32 40 25 -3 -7 -22 -26 -42 -43 -37 -29 -106
-104 -129 -141 -7 -10 -24 -36 -38 -57 -68 -103 -132 -266 -166 -421 -48 -219
-61 -318 -56 -431 4 -90 2 -103 -6 -70 -16 60 -15 427 1 500 88 392 279 662
582 821 65 35 159 73 180 73 8 0 -10 -9 -40 -21z m884 -271 c-39 -87 -64 -226
-64 -362 0 -146 16 -266 65 -480 13 -60 -14 1 -34 76 -61 227 -68 527 -15 687
15 45 60 132 69 132 2 0 -7 -24 -21 -53z m-706 -77 c-90 -54 -173 -140 -229
-236 -62 -107 -82 -165 -84 -248 -2 -39 -6 -89 -11 -111 -8 -40 -8 -40 -14
-10 -3 17 -5 -31 -4 -105 1 -135 3 -150 30 -290 26 -130 107 -351 171 -468 47
-85 107 -186 131 -222 l24 -35 -26 30 c-39 44 -129 199 -186 317 -86 181 -133
345 -164 573 -16 118 -20 89 -6 -39 17 -149 81 -392 131 -502 11 -22 19 -44
19 -49 0 -8 35 -87 51 -115 5 -8 18 -35 30 -60 12 -25 23 -48 26 -52 2 -5 2
-8 -1 -8 -17 0 -122 192 -170 310 -15 36 -30 72 -34 80 -8 14 -30 85 -66 210
-29 99 -38 173 -40 300 -2 248 32 382 142 554 59 93 191 220 210 202 4 -4 0
-13 -9 -19 -65 -49 -151 -142 -176 -191 -15 -29 -15 -30 0 -17 10 8 17 9 17 3
0 -6 -4 -14 -10 -17 -5 -3 -10 -11 -10 -18 0 -6 11 4 25 23 29 39 32 48 10 30
-20 -16 -19 -6 1 25 9 14 20 22 25 19 5 -3 9 2 9 11 0 9 5 13 10 10 6 -4 9 -1
8 6 -2 7 4 13 12 14 8 0 15 5 15 10 0 16 15 35 28 35 7 0 6 -4 -3 -10 -8 -5
-10 -10 -5 -10 6 0 21 12 35 27 14 14 44 35 67 45 23 10 45 23 48 28 3 6 14
10 23 10 9 0 -13 -18 -50 -40z m-308 -22 c-104 -145 -192 -317 -205 -403 -2
-16 -9 -48 -15 -70 -18 -70 -29 -256 -21 -355 6 -59 5 -101 -1 -110 -8 -12 -8
-11 -4 4 4 10 1 37 -5 60 -20 70 -14 327 10 433 37 169 117 324 230 446 46 49
49 47 11 -5z m1154 -160 c-1 -87 1 -140 6 -123 7 28 8 28 9 5 0 -14 -3 -40 -8
-58 -5 -17 -6 -32 -1 -32 5 0 11 8 13 18 4 13 5 12 6 -5 0 -12 -3 -25 -9 -28
-5 -3 -10 -14 -10 -23 1 -15 2 -15 15 2 12 16 13 12 10 -35 -3 -36 -1 -49 5
-39 11 17 14 4 12 -64 0 -22 4 -48 10 -59 7 -14 7 -17 -1 -13 -16 10 -13 -5 8
-46 11 -19 17 -39 14 -42 -4 -4 -13 6 -20 21 -13 27 -13 27 -8 3 3 -14 7 -36
10 -50 8 -38 -34 76 -56 153 -12 41 -17 83 -14 105 3 25 2 31 -3 18 -11 -25
-30 85 -36 205 -2 47 -1 64 3 39 6 -43 6 -42 13 33 7 67 26 167 33 167 1 0 1
-69 -1 -152z m3481 135 c-7 -18 -13 -41 -14 -56 -1 -5 -6 -5 -12 -1 -7 4 -9 0
-5 -13 4 -12 -3 -38 -18 -65 -14 -26 -23 -48 -20 -50 6 -7 -65 -171 -78 -180
-7 -4 -9 -8 -4 -8 4 0 1 -11 -8 -25 -9 -13 -16 -31 -16 -40 0 -9 -7 -18 -15
-21 -8 -4 -13 -10 -10 -14 3 -5 -2 -15 -10 -23 -8 -9 -15 -21 -15 -27 0 -7 -8
-24 -18 -38 -10 -15 -22 -35 -25 -45 -12 -32 -177 -276 -193 -285 -9 -5 -15
-12 -14 -16 2 -11 -96 -129 -195 -236 -60 -66 -146 -142 -152 -136 -4 3 3 13
15 21 25 18 22 15 139 141 205 222 342 424 483 709 30 61 58 112 62 113 5 2 5
8 2 13 -3 5 4 26 16 46 11 19 19 38 16 40 -3 3 9 30 25 60 16 30 27 58 24 63
-3 5 4 28 17 50 24 41 35 53 23 23z m-4607 -70 c-18 -27 -36 -50 -39 -53 -17
-16 -98 -213 -110 -268 -5 -26 -12 -56 -14 -67 -20 -96 -41 -429 -24 -375 6
16 7 8 3 -24 -3 -26 -2 -46 3 -43 4 3 9 -13 11 -36 1 -23 0 -38 -4 -35 -15 15
-35 139 -36 223 -1 87 -1 88 -8 30 -6 -54 -7 -50 -7 40 0 65 2 89 7 70 6 -25
8 -20 9 27 2 83 66 336 90 358 3 3 19 29 34 59 16 29 32 58 37 65 6 6 21 26
36 44 40 50 49 38 12 -15z m-1231 -303 c80 -351 239 -661 482 -940 l65 -75
-63 60 c-110 106 -249 307 -338 490 -87 179 -168 443 -178 580 -2 28 -2 39 1
25 3 -14 17 -77 31 -140z m5842 70 c0 -11 -2 -10 -7 3 -6 15 -9 13 -19 -13 -6
-16 -7 -30 -2 -30 5 0 9 -4 9 -10 0 -5 -8 -6 -17 -3 -12 5 -15 2 -10 -10 8
-22 -2 -49 -16 -40 -6 4 -8 0 -4 -11 4 -9 3 -15 -2 -12 -5 3 -9 -4 -9 -17 0
-24 -79 -177 -91 -177 -4 0 -8 -6 -8 -12 -1 -18 -90 -164 -120 -196 -12 -14
-23 -29 -23 -33 0 -34 -339 -407 -359 -394 -7 3 -8 0 -5 -9 3 -9 1 -16 -5 -16
-6 0 -11 5 -11 12 0 6 -10 3 -22 -8 -21 -17 -21 -16 1 9 14 15 31 27 39 27 9
0 12 3 9 7 -11 10 13 32 29 26 10 -3 12 0 8 10 -3 8 0 18 7 23 8 5 10 3 5 -7
-6 -10 -4 -10 6 1 8 8 20 21 28 29 8 8 9 11 3 7 -20 -11 -15 -1 9 20 12 10 18
13 13 5 -5 -10 -4 -12 4 -7 6 4 9 11 6 16 -6 10 44 66 56 63 4 -2 18 12 31 30
12 17 33 43 45 57 13 14 23 30 23 36 0 7 6 14 13 17 15 5 124 166 184 270 22
37 43 64 48 60 4 -5 5 -3 2 3 -4 6 20 65 52 130 32 65 64 134 71 152 9 24 15
30 21 20 5 -7 8 -20 8 -28z m76 -1009 c-27 -26 -287 -119 -435 -156 -285 -71
-670 -84 -983 -33 -37 6 -65 13 -63 15 2 3 55 -4 118 -14 158 -25 546 -25 703
0 202 33 418 94 574 162 79 35 102 42 86 26z m-1466 -593 c451 -172 970 -238
1419 -182 31 4 52 3 52 -3 0 -16 -194 -33 -365 -33 -317 0 -618 48 -930 147
-125 40 -315 112 -315 120 0 3 8 2 18 -2 9 -4 64 -25 121 -47z"/>
<path d="M4105 7845 c-44 -7 -96 -20 -116 -29 -20 -8 -48 -17 -63 -20 -15 -3
-33 -9 -40 -15 -6 -5 -38 -24 -70 -40 -32 -17 -77 -45 -100 -63 -59 -45 -194
-185 -201 -208 -4 -12 -11 -17 -18 -14 -7 4 -9 4 -5 -1 4 -4 -1 -20 -11 -34
-24 -34 -77 -139 -85 -171 -4 -14 11 11 32 55 151 307 431 498 762 519 71 5
90 10 90 27 0 12 -77 10 -175 -6z"/>
<path d="M5181 7526 c-20 -24 -29 -116 -19 -195 13 -108 17 -108 53 -5 27 75
33 182 13 202 -16 16 -33 15 -47 -2z"/>
<path d="M9397 4383 c-4 -3 -7 -20 -7 -38 0 -17 -6 -40 -14 -51 -13 -17 -16
-17 -30 -4 -9 9 -17 32 -18 52 l-3 37 -1750 -3 c-962 -2 -1766 -5 -1785 -8
-19 -3 -52 -12 -74 -21 -34 -15 -108 -17 -703 -17 -554 0 -675 2 -731 15 -48
11 -154 16 -382 20 -173 3 -331 6 -350 7 -156 6 -2024 -5 -2060 -13 -31 -7
-46 -7 -48 0 -2 7 -35 10 -85 9 l-82 -1 65 -6 65 -6 -49 -7 c-51 -8 -329 -10
-310 -2 5 2 59 8 120 13 88 7 54 8 -171 7 -218 -1 -279 -4 -277 -13 1 -7 -2
-13 -8 -13 -5 0 -18 -9 -29 -21 -27 -30 -62 -22 -83 19 -25 51 -28 50 -28 -14
0 -57 1 -60 33 -73 17 -8 61 -31 97 -52 65 -37 195 -83 270 -95 46 -7 54 -24
12 -24 -36 0 -122 -29 -122 -41 0 -5 12 -12 28 -16 36 -11 8146 -10 8195 0 20
4 37 12 37 17 0 14 -67 40 -104 40 -62 0 -62 17 0 30 101 21 235 69 329 118
l90 47 1 58 c2 48 -1 57 -15 57 -10 0 -21 -3 -24 -7z"/>
<path d="M2490 1787 l0 -105 25 -1 c14 -1 37 -1 52 -2 34 -1 53 24 53 71 0 57
-43 85 -89 61 -16 -9 -18 -5 -17 31 1 24 -4 43 -11 45 -10 4 -13 -21 -13 -100z"/>
<path d="M2924 1875 c-4 -9 -4 -26 -2 -39 5 -22 2 -24 -29 -19 -45 8 -73 -18
-73 -66 1 -46 21 -73 54 -72 85 3 76 -9 76 107 0 65 -4 104 -10 104 -6 0 -13
-7 -16 -15z"/>
<path d="M5203 1851 l5 -39 -38 5 c-31 4 -40 1 -54 -18 -45 -64 10 -153 70
-114 13 9 24 11 24 5 0 -5 5 -10 10 -10 6 0 10 42 10 105 0 90 -2 105 -16 105
-14 0 -16 -7 -11 -39z"/>
<path d="M4853 1874 c-9 -4 -13 -34 -13 -99 0 -92 0 -93 26 -98 70 -13 134 36
134 104 0 54 -32 88 -90 94 -25 2 -51 2 -57 -1z m104 -37 c8 -7 16 -29 19 -48
8 -48 -27 -90 -76 -92 l-35 -2 -3 69 c-4 92 0 100 45 93 20 -4 43 -12 50 -20z"/>
<path d="M2240 1800 c-30 -30 -27 -83 6 -109 34 -27 47 -26 80 2 51 44 26 127
-38 127 -15 0 -37 -9 -48 -20z"/>
<path d="M2675 1800 c-24 -26 -25 -85 -2 -107 41 -42 117 -4 117 58 0 60 -76
92 -115 49z"/>
<path d="M3628 1803 c-25 -29 -29 -52 -14 -87 29 -70 118 -49 124 28 2 25 -2
44 -14 57 -22 24 -76 25 -96 2z"/>
<path d="M5470 1720 c0 -60 4 -100 10 -100 6 0 10 16 10 35 0 33 1 34 25 23
57 -26 108 60 70 118 -17 26 -62 33 -83 12 -9 -9 -12 -9 -12 0 0 7 -4 12 -10
12 -6 0 -10 -40 -10 -100z"/>
<path d="M7530 1800 c-24 -24 -26 -67 -4 -99 14 -20 23 -22 55 -18 44 6 49 -3
18 -34 -15 -15 -28 -19 -50 -14 -18 4 -29 3 -29 -4 0 -6 10 -12 23 -13 79 -5
97 18 97 121 l0 77 -45 2 c-34 1 -51 -4 -65 -18z"/>
<path d="M8076 1798 c-38 -55 -6 -125 54 -116 24 4 30 1 30 -13 0 -24 -33 -41
-65 -33 -14 3 -25 2 -25 -4 0 -14 36 -21 68 -13 15 4 33 18 39 32 15 29 17
169 3 169 -5 0 -10 -5 -10 -12 0 -9 -3 -9 -12 0 -20 20 -65 14 -82 -10z"/>
</g>
</svg>
