<?xml version="1.0" standalone="no"?>
<!DOCTYPE svg PUBLIC "-//W3C//DTD SVG 20010904//EN"
 "http://www.w3.org/TR/2001/REC-SVG-20010904/DTD/svg10.dtd">
<svg version="1.0" xmlns="http://www.w3.org/2000/svg"
 width="300.000000pt" height="300.000000pt" viewBox="0 0 300.000000 300.000000"
 preserveAspectRatio="xMidYMid meet">
<metadata>
Created by potrace 1.16, written by Peter Selinger 2001-2019
</metadata>
<g transform="translate(0.000000,300.000000) scale(0.100000,-0.100000)"
fill="#000000" stroke="none">
<path d="M31 2691 l-25 -19 -4 -1206 -4 -1206 1501 0 1501 0 0 215 0 215 -26
16 c-17 12 -23 22 -18 33 4 9 6 446 5 971 l-2 955 -25 23 -25 22 -1427 0
c-1382 0 -1428 -1 -1451 -19z m494 -99 c122 -31 310 -105 282 -110 -46 -9
-302 60 -417 112 l-55 25 40 0 c22 1 90 -12 150 -27z m-405 -56 c14 -3 83 -12
155 -21 134 -16 253 -42 340 -75 65 -24 165 -69 165 -74 0 -2 -33 -2 -72 0
l-73 4 115 -39 c167 -57 94 -52 -151 10 -94 24 -126 25 -85 3 16 -9 76 -25
135 -35 132 -24 353 -85 318 -88 -14 -2 -202 41 -292 66 -76 21 -116 26 -255
28 -165 3 -311 27 -347 56 -18 15 -18 139 0 140 10 0 10 2 0 6 -20 8 -16 35 5
30 9 -3 28 -8 42 -11z m302 -301 c147 -31 384 -105 332 -105 -66 1 -353 23
-399 31 -96 16 -295 71 -295 80 0 15 282 10 362 -6z m248 -456 c205 -22 152
-36 -170 -45 -265 -8 -440 1 -440 22 0 17 20 22 140 33 106 10 325 6 470 -10z
m-140 -338 c-25 -14 -318 -72 -395 -78 -77 -6 -91 1 -80 36 10 33 104 46 350
49 81 1 134 -2 125 -7z"/>
</g>
</svg>
